<svg width="46" height="48" viewBox="0 0 46 48" fill="none" xmlns="http://www.w3.org/2000/svg">
<path d="M0 16C0 7.16344 7.16344 0 16 0H29.4125C38.2491 0 45.4125 7.16344 45.4125 16V32C45.4125 40.8366 38.2491 48 29.4125 48H16C7.16345 48 0 40.8366 0 32V16Z" fill="#1456A3"/>
<path d="M20.9248 22.7812C21.4248 23.25 22.0186 23.4844 22.7061 23.4844C23.3936 23.4844 23.9717 23.25 24.4404 22.7812C24.9404 22.2812 25.1904 21.6875 25.1904 21C25.1904 20.3125 24.9404 19.7344 24.4404 19.2656C23.9717 18.7656 23.3936 18.5156 22.7061 18.5156C22.0186 18.5156 21.4248 18.7656 20.9248 19.2656C20.4561 19.7344 20.2217 20.3125 20.2217 21C20.2217 21.6875 20.4561 22.2812 20.9248 22.7812ZM17.7373 16.0781C19.1123 14.7031 20.7686 14.0156 22.7061 14.0156C24.6436 14.0156 26.2842 14.7031 27.6279 16.0781C29.0029 17.4219 29.6904 19.0625 29.6904 21C29.6904 21.9688 29.4404 23.0781 28.9404 24.3281C28.4717 25.5781 27.8936 26.75 27.2061 27.8438C26.5186 28.9375 25.8311 29.9688 25.1436 30.9375C24.4873 31.875 23.9248 32.625 23.4561 33.1875L22.7061 33.9844C22.5186 33.7656 22.2686 33.4844 21.9561 33.1406C21.6436 32.7656 21.0811 32.0469 20.2686 30.9844C19.4561 29.8906 18.7373 28.8438 18.1123 27.8438C17.5186 26.8125 16.9717 25.6562 16.4717 24.375C15.9717 23.0938 15.7217 21.9688 15.7217 21C15.7217 19.0625 16.3936 17.4219 17.7373 16.0781Z" fill="#6AD3FF"/>
</svg>
