<svg width="24" height="24" viewBox="0 0 24 24" fill="none" xmlns="http://www.w3.org/2000/svg">
<path d="M8.39586 2.55202C9.86986 1.63802 11.1579 2.00602 11.9309 2.59302C12.2479 2.83302 12.4069 2.95302 12.4999 2.95302C12.5929 2.95302 12.7519 2.83302 13.0689 2.59302C13.8419 2.00602 15.1289 1.63802 16.6039 2.55202C18.5399 3.75202 18.9779 7.70802 14.5139 11.046C13.6629 11.682 13.2379 12 12.4999 12C11.7619 12 11.3369 11.682 10.4869 11.046C6.02186 7.70802 6.45986 3.75102 8.39586 2.55202Z" stroke="#104691" stroke-width="1.5" stroke-linecap="round"/>
<path d="M4 14H6.395C6.689 14 6.979 14.066 7.242 14.194L9.284 15.182C9.547 15.309 9.837 15.375 10.132 15.375H11.174C12.182 15.375 13 16.166 13 17.142C13 17.182 12.973 17.216 12.934 17.227L10.393 17.93C9.93705 18.056 9.45087 18.0119 9.025 17.806L6.842 16.75" stroke="#104691" stroke-width="1.5" stroke-linecap="round" stroke-linejoin="round"/>
<path d="M13 16.5L17.593 15.089C17.9929 14.9663 18.4213 14.9731 18.817 15.1083C19.2128 15.2435 19.5558 15.5003 19.797 15.842C20.166 16.352 20.016 17.084 19.478 17.394L11.963 21.731C11.728 21.867 11.4678 21.9537 11.1982 21.9858C10.9287 22.018 10.6554 21.9949 10.395 21.918L4 20.02" stroke="#104691" stroke-width="1.5" stroke-linecap="round" stroke-linejoin="round"/>
</svg>
