<svg width="88" height="88" viewBox="0 0 88 88" fill="none" xmlns="http://www.w3.org/2000/svg">
<g filter="url(#filter0_d_57_1656)">
<path d="M4 40C4 17.9086 21.9086 0 44 0C66.0914 0 84 17.9086 84 40C84 62.0914 66.0914 80 44 80C21.9086 80 4 62.0914 4 40Z" fill="white"/>
<path d="M56.0234 47.5234C56.8672 47.5234 57.5703 47.8281 58.1328 48.4375C58.7422 49 59.0469 49.6797 59.0469 50.4766L47.0234 54.9766L36.4766 52.0234V38.5234H39.4297L50.3281 42.5312C51.125 42.8594 51.5234 43.4219 51.5234 44.2188C51.5234 44.6875 51.3359 45.1094 50.9609 45.4844C50.6328 45.8125 50.2109 45.9766 49.6953 45.9766H45.4766L42.875 44.9922L42.3828 46.3984L45.4766 47.5234H56.0234ZM49.9766 26.8516C51.0547 25.6328 52.4141 25.0234 54.0547 25.0234C55.4141 25.0234 56.5625 25.5156 57.5 26.5C58.4844 27.4375 58.9766 28.5859 58.9766 29.9453C58.9766 30.9766 58.4844 32.2188 57.5 33.6719C56.5156 35.0781 55.5312 36.2734 54.5469 37.2578C53.5625 38.1953 52.0391 39.6016 49.9766 41.4766C47.9141 39.6016 46.3906 38.1953 45.4062 37.2578C44.4219 36.2734 43.4375 35.0781 42.4531 33.6719C41.4688 32.2188 40.9766 30.9766 40.9766 29.9453C40.9766 28.5859 41.4688 27.4375 42.4531 26.5C43.4375 25.5156 44.6094 25.0234 45.9688 25.0234C47.5625 25.0234 48.8984 25.6328 49.9766 26.8516ZM27.4766 38.5234H33.5234V54.9766H27.4766V38.5234Z" fill="#1E3A8A"/>
</g>
<defs>
<filter id="filter0_d_57_1656" x="0" y="0" width="88" height="88" filterUnits="userSpaceOnUse" color-interpolation-filters="sRGB">
<feFlood flood-opacity="0" result="BackgroundImageFix"/>
<feColorMatrix in="SourceAlpha" type="matrix" values="0 0 0 0 0 0 0 0 0 0 0 0 0 0 0 0 0 0 127 0" result="hardAlpha"/>
<feOffset dy="4"/>
<feGaussianBlur stdDeviation="2"/>
<feComposite in2="hardAlpha" operator="out"/>
<feColorMatrix type="matrix" values="0 0 0 0 0 0 0 0 0 0 0 0 0 0 0 0 0 0 0.25 0"/>
<feBlend mode="normal" in2="BackgroundImageFix" result="effect1_dropShadow_57_1656"/>
<feBlend mode="normal" in="SourceGraphic" in2="effect1_dropShadow_57_1656" result="shape"/>
</filter>
</defs>
</svg>
