<svg width="47" height="48" viewBox="0 0 47 48" fill="none" xmlns="http://www.w3.org/2000/svg">
<g filter="url(#filter0_i_40_1133)">
<ellipse cx="23.4997" cy="23.6259" rx="18.6893" ry="18.5896" transform="rotate(-90 23.4997 23.6259)" fill="#0E438E"/>
</g>
<path d="M29.6862 17.1529C29.4358 17.1529 29.1911 17.2272 28.9829 17.3663C28.7747 17.5053 28.6125 17.7031 28.5167 17.9344C28.4208 18.1657 28.3958 18.4202 28.4446 18.6658C28.4935 18.9113 28.614 19.1369 28.7911 19.3139C28.9681 19.491 29.1937 19.6115 29.4392 19.6604C29.6848 19.7092 29.9393 19.6841 30.1706 19.5883C30.4019 19.4925 30.5996 19.3303 30.7387 19.1221C30.8778 18.9139 30.9521 18.6692 30.9521 18.4188C30.9521 18.0831 30.8187 17.7611 30.5813 17.5237C30.3439 17.2863 30.0219 17.1529 29.6862 17.1529ZM34.5388 19.7058C34.5182 18.8305 34.3543 17.9646 34.0535 17.1424C33.7853 16.4389 33.3678 15.8019 32.8298 15.2752C32.3074 14.7345 31.6689 14.3196 30.9626 14.062C30.1426 13.7521 29.2757 13.5844 28.3992 13.5662C27.281 13.5029 26.9223 13.5029 24.053 13.5029C21.1836 13.5029 20.825 13.5029 19.7068 13.5662C18.8303 13.5844 17.9634 13.7521 17.1433 14.062C16.4383 14.3222 15.8004 14.7367 15.2762 15.2752C14.7354 15.7975 14.3206 16.436 14.063 17.1424C13.753 17.9624 13.5854 18.8293 13.5672 19.7058C13.5039 20.824 13.5039 21.1827 13.5039 24.052C13.5039 26.9214 13.5039 27.28 13.5672 28.3982C13.5854 29.2747 13.753 30.1416 14.063 30.9616C14.3206 31.668 14.7354 32.3065 15.2762 32.8288C15.8004 33.3673 16.4383 33.7818 17.1433 34.042C17.9634 34.352 18.8303 34.5196 19.7068 34.5378C20.825 34.6011 21.1836 34.6011 24.053 34.6011C26.9223 34.6011 27.281 34.6011 28.3992 34.5378C29.2757 34.5196 30.1426 34.352 30.9626 34.042C31.6689 33.7844 32.3074 33.3696 32.8298 32.8288C33.3702 32.3041 33.788 31.6665 34.0535 30.9616C34.3543 30.1395 34.5182 29.2735 34.5388 28.3982C34.5388 27.28 34.6021 26.9214 34.6021 24.052C34.6021 21.1827 34.6021 20.824 34.5388 19.7058ZM32.6399 28.2716C32.6322 28.9413 32.511 29.6047 32.2813 30.2338C32.1128 30.6929 31.8423 31.1077 31.4901 31.4469C31.1479 31.7956 30.7339 32.0655 30.2769 32.2381C29.6479 32.4678 28.9844 32.5891 28.3148 32.5968C27.2599 32.6495 26.8696 32.6601 24.0952 32.6601C21.3208 32.6601 20.9305 32.6601 19.8755 32.5968C19.1802 32.6098 18.4879 32.5027 17.829 32.2803C17.3921 32.0989 16.9971 31.8296 16.6686 31.4891C16.3185 31.1502 16.0513 30.735 15.888 30.276C15.6304 29.6379 15.4876 28.9594 15.466 28.2716C15.466 27.2167 15.4027 26.8264 15.4027 24.052C15.4027 21.2776 15.4027 20.8873 15.466 19.8324C15.4708 19.1478 15.5957 18.4694 15.8353 17.8281C16.021 17.3828 16.306 16.9859 16.6686 16.6677C16.9891 16.3049 17.3852 16.0169 17.829 15.8237C18.472 15.5917 19.1498 15.4704 19.8334 15.4651C20.8883 15.4651 21.2786 15.4018 24.053 15.4018C26.8274 15.4018 27.2177 15.4018 28.2726 15.4651C28.9422 15.4727 29.6057 15.594 30.2347 15.8237C30.7141 16.0016 31.1444 16.2909 31.4901 16.6677C31.8358 16.9917 32.1059 17.3879 32.2813 17.8281C32.5157 18.4704 32.6371 19.1486 32.6399 19.8324C32.6927 20.8873 32.7032 21.2776 32.7032 24.052C32.7032 26.8264 32.6927 27.2167 32.6399 28.2716ZM24.053 18.6403C22.9831 18.6424 21.9379 18.9616 21.0493 19.5575C20.1607 20.1534 19.4688 20.9993 19.0608 21.9883C18.6528 22.9774 18.5471 24.0652 18.7571 25.1142C18.9671 26.1633 19.4834 27.1266 20.2406 27.8824C20.9979 28.6381 21.9622 29.1525 23.0116 29.3605C24.0611 29.5684 25.1487 29.4606 26.1369 29.0507C27.1252 28.6408 27.9697 27.9472 28.5639 27.0575C29.1581 26.1678 29.4752 25.1219 29.4752 24.052C29.4766 23.3401 29.3372 22.6348 29.0651 21.977C28.793 21.3191 28.3935 20.7215 27.8895 20.2185C27.3856 19.7156 26.7872 19.3172 26.1288 19.0464C25.4704 18.7755 24.7649 18.6375 24.053 18.6403ZM24.053 27.5648C23.3582 27.5648 22.679 27.3588 22.1014 26.9728C21.5237 26.5868 21.0734 26.0382 20.8075 25.3963C20.5417 24.7544 20.4721 24.0481 20.6076 23.3667C20.7432 22.6853 21.0777 22.0593 21.569 21.5681C22.0603 21.0768 22.6862 20.7422 23.3677 20.6067C24.0491 20.4711 24.7554 20.5407 25.3973 20.8066C26.0392 21.0724 26.5878 21.5227 26.9738 22.1004C27.3598 22.6781 27.5658 23.3572 27.5658 24.052C27.5658 24.5133 27.475 24.9701 27.2984 25.3963C27.1219 25.8225 26.8631 26.2098 26.5369 26.536C26.2107 26.8622 25.8235 27.1209 25.3973 27.2974C24.9711 27.474 24.5143 27.5648 24.053 27.5648Z" fill="#F5F5F5"/>
<defs>
<filter id="filter0_i_40_1133" x="4.91016" y="4.93677" width="42.0896" height="37.3784" filterUnits="userSpaceOnUse" color-interpolation-filters="sRGB">
<feFlood flood-opacity="0" result="BackgroundImageFix"/>
<feBlend mode="normal" in="SourceGraphic" in2="BackgroundImageFix" result="shape"/>
<feColorMatrix in="SourceAlpha" type="matrix" values="0 0 0 0 0 0 0 0 0 0 0 0 0 0 0 0 0 0 127 0" result="hardAlpha"/>
<feOffset dx="4.91045"/>
<feGaussianBlur stdDeviation="7.01493"/>
<feComposite in2="hardAlpha" operator="arithmetic" k2="-1" k3="1"/>
<feColorMatrix type="matrix" values="0 0 0 0 1 0 0 0 0 1 0 0 0 0 1 0 0 0 0.15 0"/>
<feBlend mode="normal" in2="shape" result="effect1_innerShadow_40_1133"/>
</filter>
</defs>
</svg>
