<svg width="64" height="64" viewBox="0 0 64 64" fill="none" xmlns="http://www.w3.org/2000/svg">
<g filter="url(#filter0_d_133_558)">
<path d="M4 28C4 12.536 16.536 0 32 0C47.464 0 60 12.536 60 28C60 43.464 47.464 56 32 56C16.536 56 4 43.464 4 28Z" fill="#ECF7FF"/>
<path d="M29.3633 30.6367C30.1055 31.3789 30.9844 31.75 32 31.75C33.0156 31.75 33.8945 31.3789 34.6367 30.6367C35.3789 29.8945 35.75 29.0156 35.75 28C35.75 26.9844 35.3789 26.1055 34.6367 25.3633C33.8945 24.6211 33.0156 24.25 32 24.25C30.9844 24.25 30.1055 24.6211 29.3633 25.3633C28.6211 26.1055 28.25 26.9844 28.25 28C28.25 29.0156 28.6211 29.8945 29.3633 30.6367ZM23.1523 19.2109C25.6133 16.75 28.5625 15.5195 32 15.5195C35.4375 15.5195 38.3672 16.75 40.7891 19.2109C43.25 21.6328 44.4805 24.5625 44.4805 28V29.8164C44.4805 31.0664 44.0508 32.1211 43.1914 32.9805C42.3711 33.8398 41.3555 34.2695 40.1445 34.2695C38.6211 34.2695 37.3906 33.6445 36.4531 32.3945C35.2031 33.6445 33.7188 34.2695 32 34.2695C30.2812 34.2695 28.7969 33.6641 27.5469 32.4531C26.3359 31.2031 25.7305 29.7188 25.7305 28C25.7305 26.2812 26.3359 24.8164 27.5469 23.6055C28.7969 22.3555 30.2812 21.7305 32 21.7305C33.7188 21.7305 35.1836 22.3555 36.3945 23.6055C37.6445 24.8164 38.2695 26.2812 38.2695 28V29.8164C38.2695 30.3242 38.4453 30.7734 38.7969 31.1641C39.1875 31.5547 39.6367 31.75 40.1445 31.75C40.6523 31.75 41.082 31.5547 41.4336 31.1641C41.8242 30.7734 42.0195 30.3242 42.0195 29.8164V28C42.0195 25.2656 41.0234 22.9219 39.0312 20.9688C37.0781 18.9766 34.7344 17.9805 32 17.9805C29.2656 17.9805 26.9023 18.9766 24.9102 20.9688C22.957 22.9219 21.9805 25.2656 21.9805 28C21.9805 30.7344 22.957 33.0977 24.9102 35.0898C26.9023 37.043 29.2656 38.0195 32 38.0195H38.2695V40.4805H32C28.5625 40.4805 25.6133 39.2695 23.1523 36.8477C20.7305 34.3867 19.5195 31.4375 19.5195 28C19.5195 24.5625 20.7305 21.6328 23.1523 19.2109Z" fill="#003F7E"/>
</g>
<defs>
<filter id="filter0_d_133_558" x="0" y="0" width="64" height="64" filterUnits="userSpaceOnUse" color-interpolation-filters="sRGB">
<feFlood flood-opacity="0" result="BackgroundImageFix"/>
<feColorMatrix in="SourceAlpha" type="matrix" values="0 0 0 0 0 0 0 0 0 0 0 0 0 0 0 0 0 0 127 0" result="hardAlpha"/>
<feOffset dy="4"/>
<feGaussianBlur stdDeviation="2"/>
<feComposite in2="hardAlpha" operator="out"/>
<feColorMatrix type="matrix" values="0 0 0 0 0 0 0 0 0 0 0 0 0 0 0 0 0 0 0.25 0"/>
<feBlend mode="normal" in2="BackgroundImageFix" result="effect1_dropShadow_133_558"/>
<feBlend mode="normal" in="SourceGraphic" in2="effect1_dropShadow_133_558" result="shape"/>
</filter>
</defs>
</svg>
