<svg width="48" height="48" viewBox="0 0 48 48" fill="none" xmlns="http://www.w3.org/2000/svg">
<path d="M0 16C0 7.16344 7.16344 0 16 0H32C40.8366 0 48 7.16344 48 16V32C48 40.8366 40.8366 48 32 48H16C7.16344 48 0 40.8366 0 32V16Z" fill="#1456A3"/>
<path d="M32.0156 20.0156V18L24 23.0156L15.9844 18V20.0156L24 24.9844L32.0156 20.0156ZM32.0156 15.9844C32.5469 15.9844 33 16.1875 33.375 16.5938C33.7812 17 33.9844 17.4688 33.9844 18V30C33.9844 30.5312 33.7812 31 33.375 31.4062C33 31.8125 32.5469 32.0156 32.0156 32.0156H15.9844C15.4531 32.0156 14.9844 31.8125 14.5781 31.4062C14.2031 31 14.0156 30.5312 14.0156 30V18C14.0156 17.4688 14.2031 17 14.5781 16.5938C14.9844 16.1875 15.4531 15.9844 15.9844 15.9844H32.0156Z" fill="#6AD3FF"/>
</svg>
