<svg width="88" height="88" viewBox="0 0 88 88" fill="none" xmlns="http://www.w3.org/2000/svg">
<g filter="url(#filter0_d_57_1651)">
<path d="M4 40C4 17.9086 21.9086 0 44 0C66.0914 0 84 17.9086 84 40C84 62.0914 66.0914 80 44 80C21.9086 80 4 62.0914 4 40Z" fill="white"/>
<path d="M52.0859 31.9141L48.5 30.2266L52.0859 28.6094L53.7734 25.0234L55.3906 28.6094L58.9766 30.2266L55.3906 31.9141L53.7734 35.5L52.0859 31.9141ZM57.9219 41.0547L56.7266 38.5234L55.6016 41.0547L53 42.25L55.6016 43.4453L56.7266 45.9766L57.9219 43.4453L60.5234 42.25L57.9219 41.0547ZM50.3281 43.5859L53.2812 45.7656L49.5547 52.2344L46.1797 50.8281C45.8516 51.0625 45.5234 51.25 45.1953 51.3906L44.7734 54.9766H37.25L36.8281 51.3906C36.4531 51.2031 36.125 51.0156 35.8438 50.8281L32.4688 52.2344L28.7422 45.7656L31.625 43.5156C31.625 43.4688 31.625 43.3984 31.625 43.3047C31.625 43.2109 31.625 43.1172 31.625 43.0234C31.625 42.9297 31.625 42.8359 31.625 42.7422C31.625 42.6484 31.625 42.5547 31.625 42.4609L28.7422 40.2109L32.4688 33.7422L35.8438 35.1484C36.1719 34.9141 36.5 34.7266 36.8281 34.5859L37.25 31H44.7734L45.1953 34.5859C45.5234 34.7734 45.8516 34.9609 46.1797 35.1484L49.5547 33.7422L53.2812 40.2812L50.3281 42.4609C50.375 42.5547 50.3984 42.6484 50.3984 42.7422C50.3984 42.8359 50.3984 42.9297 50.3984 43.0234C50.3984 43.1172 50.3984 43.2109 50.3984 43.3047C50.3984 43.3984 50.375 43.4922 50.3281 43.5859ZM45.4766 43.0234C45.4766 42.1797 45.2656 41.4297 44.8438 40.7734C44.4688 40.0703 43.9297 39.5312 43.2266 39.1562C42.5703 38.7344 41.8203 38.5234 40.9766 38.5234C40.1797 38.5234 39.4297 38.7344 38.7266 39.1562C38.0703 39.5312 37.5312 40.0703 37.1094 40.7734C36.6875 41.4297 36.4766 42.1797 36.4766 43.0234C36.4766 43.8203 36.6875 44.5703 37.1094 45.2734C37.5312 45.9297 38.0703 46.4688 38.7266 46.8906C39.4297 47.3125 40.1797 47.5234 40.9766 47.5234C41.8203 47.5234 42.5703 47.3125 43.2266 46.8906C43.9297 46.4688 44.4688 45.9297 44.8438 45.2734C45.2656 44.5703 45.4766 43.8203 45.4766 43.0234Z" fill="#1E3A8A"/>
</g>
<defs>
<filter id="filter0_d_57_1651" x="0" y="0" width="88" height="88" filterUnits="userSpaceOnUse" color-interpolation-filters="sRGB">
<feFlood flood-opacity="0" result="BackgroundImageFix"/>
<feColorMatrix in="SourceAlpha" type="matrix" values="0 0 0 0 0 0 0 0 0 0 0 0 0 0 0 0 0 0 127 0" result="hardAlpha"/>
<feOffset dy="4"/>
<feGaussianBlur stdDeviation="2"/>
<feComposite in2="hardAlpha" operator="out"/>
<feColorMatrix type="matrix" values="0 0 0 0 0 0 0 0 0 0 0 0 0 0 0 0 0 0 0.25 0"/>
<feBlend mode="normal" in2="BackgroundImageFix" result="effect1_dropShadow_57_1651"/>
<feBlend mode="normal" in="SourceGraphic" in2="effect1_dropShadow_57_1651" result="shape"/>
</filter>
</defs>
</svg>
