<svg width="64" height="64" viewBox="0 0 64 64" fill="none" xmlns="http://www.w3.org/2000/svg">
<g filter="url(#filter0_d_133_550)">
<path d="M4 28C4 12.536 16.536 0 32 0C47.464 0 60 12.536 60 28C60 43.464 47.464 56 32 56C16.536 56 4 43.464 4 28Z" fill="#ECF7FF"/>
<path d="M35.75 28C35.75 26.9844 35.3789 26.1055 34.6367 25.3633C33.8945 24.6211 33.0156 24.25 32 24.25V21.7305C33.7188 21.7305 35.1836 22.3555 36.3945 23.6055C37.6445 24.8164 38.2695 26.2812 38.2695 28H35.75ZM40.7305 28C40.7305 25.5781 39.8711 23.5273 38.1523 21.8477C36.4727 20.1289 34.4219 19.2695 32 19.2695V16.75C35.125 16.75 37.7812 17.8438 39.9688 20.0312C42.1562 22.2188 43.25 24.875 43.25 28H40.7305ZM42.0195 32.3945C42.3711 32.3945 42.6641 32.5117 42.8984 32.7461C43.1328 32.9805 43.25 33.2734 43.25 33.625V38.0195C43.25 38.3711 43.1328 38.6641 42.8984 38.8984C42.6641 39.1328 42.3711 39.25 42.0195 39.25C36.1602 39.25 31.1406 37.1797 26.9609 33.0391C22.8203 28.8594 20.75 23.8398 20.75 17.9805C20.75 17.6289 20.8672 17.3359 21.1016 17.1016C21.3359 16.8672 21.6289 16.75 21.9805 16.75H26.375C26.7266 16.75 27.0195 16.8672 27.2539 17.1016C27.4883 17.3359 27.6055 17.6289 27.6055 17.9805V18.0391C27.6055 19.6406 27.8398 21.1055 28.3086 22.4336C28.3867 22.5898 28.4258 22.7266 28.4258 22.8438C28.4258 23.2344 28.2891 23.5273 28.0156 23.7227L25.2617 26.4766C26.043 27.9609 27.2344 29.5234 28.8359 31.1641C30.4766 32.7656 32.0391 33.957 33.5234 34.7383L36.2773 31.9844C36.5508 31.7109 36.8438 31.5742 37.1562 31.5742C37.2734 31.5742 37.4102 31.6133 37.5664 31.6914C38.9727 32.1602 40.457 32.3945 42.0195 32.3945Z" fill="#003F7E"/>
</g>
<defs>
<filter id="filter0_d_133_550" x="0" y="0" width="64" height="64" filterUnits="userSpaceOnUse" color-interpolation-filters="sRGB">
<feFlood flood-opacity="0" result="BackgroundImageFix"/>
<feColorMatrix in="SourceAlpha" type="matrix" values="0 0 0 0 0 0 0 0 0 0 0 0 0 0 0 0 0 0 127 0" result="hardAlpha"/>
<feOffset dy="4"/>
<feGaussianBlur stdDeviation="2"/>
<feComposite in2="hardAlpha" operator="out"/>
<feColorMatrix type="matrix" values="0 0 0 0 0 0 0 0 0 0 0 0 0 0 0 0 0 0 0.25 0"/>
<feBlend mode="normal" in2="BackgroundImageFix" result="effect1_dropShadow_133_550"/>
<feBlend mode="normal" in="SourceGraphic" in2="effect1_dropShadow_133_550" result="shape"/>
</filter>
</defs>
</svg>
