<svg width="48" height="48" viewBox="0 0 48 48" fill="none" xmlns="http://www.w3.org/2000/svg">
<path d="M0 16C0 7.16344 7.16344 0 16 0H32C40.8366 0 48 7.16344 48 16V32C48 40.8366 40.8366 48 32 48H16C7.16344 48 0 40.8366 0 32V16Z" fill="#1456A3"/>
<path d="M32.0156 27.375C32.2969 27.375 32.5312 27.4688 32.7188 27.6562C32.9062 27.8438 33 28.0781 33 28.3594V31.8281C33 32.6094 32.6719 33 32.0156 33C27.3594 33 23.3594 31.3281 20.0156 27.9844C16.6719 24.6406 15 20.6406 15 15.9844C15 15.3281 15.3906 15 16.1719 15H19.6406C19.9219 15 20.1562 15.0938 20.3438 15.2812C20.5312 15.4688 20.625 15.7031 20.625 15.9844C20.625 17.2031 20.8125 18.375 21.1875 19.5C21.3125 19.9062 21.2344 20.25 20.9531 20.5312L19.0312 22.2188C20.4688 25.2188 22.7656 27.4844 25.9219 29.0156L27.4688 27.0469C27.6562 26.8594 27.8906 26.7656 28.1719 26.7656C28.3281 26.7656 28.4375 26.7812 28.5 26.8125C29.625 27.1875 30.7969 27.375 32.0156 27.375Z" fill="#6AD3FF"/>
</svg>
