<svg width="24" height="24" viewBox="0 0 24 24" fill="none" xmlns="http://www.w3.org/2000/svg">
<path d="M18.9996 17.5C20.4236 17.5 21.0616 17.5 21.5136 17.013C21.5336 16.9917 21.5522 16.97 21.5696 16.948C21.9996 16.435 21.9996 15.628 21.9996 14.012C21.9996 12.787 21.9996 12.175 21.7596 11.658C21.5096 11.118 21.0576 10.781 20.1076 10.093C19.1636 9.409 18.4936 8.641 17.8536 7.583C16.9426 6.073 16.4866 5.318 15.8036 4.909C15.1196 4.5 14.3136 4.5 12.6996 4.5H12.0016L13.1196 7.98C13.6676 9.685 13.9416 10.537 14.5126 11.019C15.0836 11.5 15.8216 11.5 17.2966 11.5H20.9996M12.0026 4.5V17.5M9.00256 17.5H15.0016M21.9996 14.5H20.9996M12.0026 11.5H3.00456C3.00456 11.5 2.68356 11.504 2.40456 11.5C1.94356 11.493 2.00456 11.48 2.00456 11.54V12.5C2.00456 12.5 1.98456 15.8 2.02056 16.193C2.02056 16.452 2.22456 16.663 2.58456 16.88C2.82056 17.037 3.19056 17.286 3.48456 17.404C3.84456 17.54 5.00456 17.5 5.00456 17.5" stroke="#104691" stroke-width="1.5" stroke-linecap="round" stroke-linejoin="round"/>
<path d="M17.0009 19.5C17.5313 19.5 18.04 19.2893 18.4151 18.9142C18.7902 18.5391 19.0009 18.0304 19.0009 17.5C19.0009 16.9696 18.7902 16.4609 18.4151 16.0858C18.04 15.7107 17.5313 15.5 17.0009 15.5C16.4705 15.5 15.9618 15.7107 15.5867 16.0858C15.2116 16.4609 15.0009 16.9696 15.0009 17.5C15.0009 18.0304 15.2116 18.5391 15.5867 18.9142C15.9618 19.2893 16.4705 19.5 17.0009 19.5ZM7.00391 19.5C7.53434 19.5 8.04305 19.2893 8.41812 18.9142C8.79319 18.5391 9.00391 18.0304 9.00391 17.5C9.00391 16.9696 8.79319 16.4609 8.41812 16.0858C8.04305 15.7107 7.53434 15.5 7.00391 15.5C6.47347 15.5 5.96477 15.7107 5.58969 16.0858C5.21462 16.4609 5.00391 16.9696 5.00391 17.5C5.00391 18.0304 5.21462 18.5391 5.58969 18.9142C5.96477 19.2893 6.47347 19.5 7.00391 19.5Z" stroke="#104691" stroke-width="1.5"/>
</svg>
