<svg width="47" height="48" viewBox="0 0 47 48" fill="none" xmlns="http://www.w3.org/2000/svg">
<g filter="url(#filter0_i_40_1146)">
<ellipse cx="23.4997" cy="23.6259" rx="18.6893" ry="18.5896" transform="rotate(-90 23.4997 23.6259)" fill="#0E438E"/>
</g>
<g clip-path="url(#clip0_40_1146)">
<path fill-rule="evenodd" clip-rule="evenodd" d="M28.817 18.9889C28.464 18.4809 27.52 17.7669 25.991 18.0749C25.099 18.2539 24.566 18.6949 24.227 19.2769C23.866 19.8969 23.691 20.7399 23.691 21.7209C23.691 21.9861 23.5857 22.2405 23.3982 22.428C23.2106 22.6155 22.9563 22.7209 22.691 22.7209C20.325 22.7209 18.073 22.0179 16.178 20.1169C16.035 20.8882 15.9786 21.6731 16.01 22.4569C16.063 23.5429 16.322 24.6319 16.937 25.5649C17.542 26.4819 18.537 27.3219 20.201 27.8499C20.3641 27.9016 20.5112 27.9943 20.6282 28.1191C20.7452 28.2439 20.8282 28.3966 20.8693 28.5626C20.9105 28.7287 20.9083 28.9025 20.8631 29.0675C20.8179 29.2324 20.7311 29.383 20.611 29.5049C20.078 30.0516 19.474 30.5242 18.815 30.9099C19.875 31.0199 20.897 31.0279 21.845 30.9419C23.765 30.7679 25.294 30.2189 26.25 29.4419C28.263 27.8099 29.34 25.3759 29.14 21.2979C29.106 20.6279 29.753 19.9049 30.065 19.3559C29.594 19.4439 29.122 19.4279 28.817 18.9889ZM15.594 16.9839C15.7751 16.9629 15.9585 16.9917 16.1243 17.0673C16.2902 17.1429 16.4322 17.2624 16.535 17.4129C18.011 19.5719 19.783 20.4699 21.75 20.6739C21.846 19.8329 22.073 19.0019 22.5 18.2699C23.126 17.1959 24.144 16.4059 25.598 16.1139C27.608 15.7099 29.138 16.4379 30.025 17.3289L31.817 16.9939C32.0046 16.9588 32.1982 16.978 32.3752 17.0494C32.5521 17.1207 32.7049 17.2412 32.8157 17.3966C32.9264 17.5519 32.9903 17.7357 32.9999 17.9263C33.0096 18.1168 32.9645 18.3061 32.87 18.4719L31.15 21.4939C31.307 25.8549 30.095 28.8989 27.511 30.9959C26.141 32.1079 24.179 32.7389 22.026 32.9339C19.856 33.1299 17.403 32.8929 14.965 32.1809C14.7567 32.1201 14.5738 31.9933 14.444 31.8194C14.3141 31.6456 14.2443 31.4343 14.2451 31.2173C14.2459 31.0003 14.3172 30.7894 14.4484 30.6166C14.5795 30.4437 14.7633 30.3181 14.972 30.2589C16.198 29.9099 17.132 29.6089 17.975 29.0819C16.776 28.4459 15.893 27.6139 15.268 26.6659C14.4 25.3479 14.078 23.8779 14.014 22.5529C13.95 21.2279 14.141 19.9999 14.343 19.1149C14.458 18.6099 14.592 18.1039 14.777 17.6199C14.8423 17.4493 14.953 17.2998 15.0972 17.1877C15.2415 17.0756 15.4126 17.0051 15.594 16.9839Z" fill="white"/>
</g>
<defs>
<filter id="filter0_i_40_1146" x="4.91016" y="4.93677" width="42.0896" height="37.3784" filterUnits="userSpaceOnUse" color-interpolation-filters="sRGB">
<feFlood flood-opacity="0" result="BackgroundImageFix"/>
<feBlend mode="normal" in="SourceGraphic" in2="BackgroundImageFix" result="shape"/>
<feColorMatrix in="SourceAlpha" type="matrix" values="0 0 0 0 0 0 0 0 0 0 0 0 0 0 0 0 0 0 127 0" result="hardAlpha"/>
<feOffset dx="4.91045"/>
<feGaussianBlur stdDeviation="7.01493"/>
<feComposite in2="hardAlpha" operator="arithmetic" k2="-1" k3="1"/>
<feColorMatrix type="matrix" values="0 0 0 0 1 0 0 0 0 1 0 0 0 0 1 0 0 0 0.15 0"/>
<feBlend mode="normal" in2="shape" result="effect1_innerShadow_40_1146"/>
</filter>
<clipPath id="clip0_40_1146">
<rect width="24" height="24" fill="white" transform="translate(11 12)"/>
</clipPath>
</defs>
</svg>
